<svg viewBox="0 0 24 24" fill="none" xmlns="http://www.w3.org/2000/svg">
    <path fill="#000000"
          d="M24 18.588a1.529 1.529 0 0 1-1.895-.72l-3.45-4.771-.5-.667-4.003 5.444a1.466 1.466 0 0 1-1.802.708l5.158-6.92-4.798-6.251a1.595 1.595 0 0 1 1.9-.666L18.064 10.5l3.892-5.197a1.416 1.416 0 0 1 1.75-.613L19.05 11.874 24 18.588zm-11.588-5.677a.5.5 0 0 1-.096.806l-2.25 1.5a.5.5 0 0 1-.698-.806l2.25-1.5a.5.5 0 0 1 .794 0zm-7.5-8.662a1.529 1.529 0 0 1 1.895.72l3.45 4.771.5.667 4.003-5.444a1.466 1.466 0 0 1 1.802-.708L10.404 10.175l4.798 6.251a1.595 1.595 0 0 1-1.9.666L9.848 11.5l-3.892 5.197a1.416 1.416 0 0 1-1.75.613L8.862 10.426 3.912 3.712z" />
    </svg>
