<svg viewBox="0 0 24 24" fill="none" xmlns="http://www.w3.org/2000/svg">
    <path fill="#FF6B35"
          d="M4.615 16.2l7.143 4.577c.253.162.604.162.857 0l7.143-4.577c.265-.17.442-.462.442-.785V8.582c0-.323-.177-.615-.442-.785L12.615 3.22c-.253-.162-.604-.162-.857 0L4.615 7.797c-.265.17-.442.462-.442.785v6.833c0 .323.177.615.442.785z" />
    <path fill="#FFB020" d="M11.143 8.582v6.833L4.615 11.838z" />
    <path fill="#FF6B35" d="M12.857 8.582v6.833l6.528-3.577z" />
    <path fill="#FFC947" d="M4.615 7.797L12 12l7.385-4.203L12 3.22z" />
</svg>
