<svg height="225px" width="225px" version="1.1" id="Layer_1" xmlns="http://www.w3.org/2000/svg" xmlns:xlink="http://www.w3.org/1999/xlink" viewBox="-19.63 -19.63 431.86 431.86" xml:space="preserve" fill="#000000"><g id="SVGRepo_bgCarrier" stroke-width="0"><rect x="-19.63" y="-19.63" width="431.86" height="431.86" rx="215.93" fill="#ffffff" strokewidth="0"></rect></g><g id="SVGRepo_tracerCarrier" stroke-linecap="round" stroke-linejoin="round"></g><g id="SVGRepo_iconCarrier"> <path style="fill:#FFFFFF;" d="M359.855,21.786H32.743c-6.012,0-10.925,4.848-10.925,10.925v246.756 c0,6.012,4.848,10.925,10.925,10.925h327.111c6.012,0,10.925-4.848,10.925-10.925V32.711 C370.78,26.699,365.867,21.786,359.855,21.786z"></path> <path style="fill:#FFC10D;" d="M263.596,348.25l-21.01-36.073h-92.574l-20.945,36.073c-1.939,3.297-5.56,5.43-9.438,5.43H102.95 c-4.719,0-8.469,3.814-8.469,8.469c0,4.719,3.814,8.469,8.469,8.469h186.764c4.719,0,8.469-3.814,8.469-8.469 c0-4.719-3.814-8.469-8.469-8.469h-16.679C269.091,353.681,265.535,351.677,263.596,348.25z"></path> <path style="fill:#194F82;" d="M359.855,0H32.743C14.707,0,0.032,14.675,0.032,32.711v246.756c0,18.101,14.675,32.776,32.711,32.776 H124.8l-11.442,19.717H102.95c-16.679,0-30.319,13.576-30.319,30.319c0,16.679,13.576,30.319,30.319,30.319h186.764 c16.679,0,30.319-13.576,30.319-30.319c0-16.679-13.576-30.319-30.319-30.319h-10.408l-11.378-19.717h91.927 c18.036,0,32.711-14.675,32.711-32.711V32.711C392.566,14.675,377.891,0,359.855,0z M370.78,279.467 c0,6.012-4.848,10.925-10.925,10.925H32.743c-6.012,0-10.925-4.848-10.925-10.925V32.711c0-6.012,4.848-10.925,10.925-10.925 h327.111c6.012,0,10.925,4.848,10.925,10.925v246.82l0,0V279.467z M298.246,362.279c0,4.719-3.814,8.469-8.469,8.469H102.95 c-4.719,0-8.469-3.814-8.469-8.469c0-4.719,3.814-8.469,8.469-8.469h16.679c3.879,0,7.499-2.069,9.438-5.43l20.945-36.073h92.574 l20.945,36.073c1.939,3.297,5.56,5.43,9.438,5.43h16.679C294.368,353.681,298.246,357.56,298.246,362.279z"></path> <path style="fill:#56ACE0;" d="M43.604,43.572v19.006h46.028c6.012,0,10.925,4.848,10.925,10.925 c0,6.012-4.848,10.925-10.925,10.925H43.604v18.101h17.648c6.012,0,10.925,4.848,10.925,10.925c0,6.012-4.848,10.925-10.925,10.925 H43.604v144.162h305.325V43.572H43.604z"></path> <path style="fill:#FFC10D;" d="M252.8,140.541c-1.293-4.719-3.168-9.244-5.56-13.446c-2.133-3.879-1.552-8.663,1.551-11.83 l12.154-12.154L249.18,91.345l-12.024,12.154c-3.103,3.168-7.952,3.814-11.83,1.616c-4.202-2.392-8.663-4.267-13.446-5.56 c-4.267-1.164-7.24-5.042-7.24-9.503V72.986h-16.614v17.131c0,4.396-2.909,8.275-7.24,9.503c-4.719,1.293-9.244,3.168-13.446,5.56 c-3.879,2.133-8.663,1.552-11.83-1.616l-12.218-12.024l-11.766,11.766l12.154,12.154c3.168,3.103,3.814,7.952,1.616,11.83 c-2.392,4.202-4.267,8.663-5.56,13.446c-1.164,4.267-5.042,7.176-9.503,7.176h-17.131v16.614h17.131 c4.396,0,8.275,2.909,9.503,7.176c1.293,4.719,3.168,9.244,5.56,13.446c2.133,3.879,1.552,8.663-1.616,11.83l-12.154,12.154 l11.766,11.701l12.154-12.154c3.168-3.168,7.952-3.814,11.83-1.616c4.202,2.392,8.663,4.267,13.446,5.56 c4.267,1.164,7.24,5.042,7.24,9.503v17.131h16.614v-17.131c0-4.396,2.909-8.275,7.24-9.503c4.719-1.293,9.244-3.168,13.446-5.56 c3.879-2.133,8.663-1.551,11.83,1.616l12.154,12.154l11.766-11.766l-12.154-12.154c-3.168-3.103-3.814-7.952-1.616-11.83 c2.392-4.202,4.267-8.663,5.56-13.446c1.164-4.267,5.042-7.176,9.503-7.176h17.131v-16.614h-17.131 C257.778,147.846,253.964,144.808,252.8,140.541z M196.299,191.16c-19.394,0-35.103-15.774-35.103-35.103 s15.774-35.103,35.103-35.103s35.103,15.774,35.103,35.103S215.693,191.16,196.299,191.16z"></path> <g> <path style="fill:#194F82;" d="M289.196,128.129H269.35c-0.517-1.293-1.099-2.651-1.616-3.943l13.964-13.964 c3.814-3.943,3.943-10.02,0-13.899l-25.665-25.665c-3.879-3.879-10.02-3.879-13.899,0L228.17,84.622 c-1.293-0.517-2.651-1.099-3.943-1.616V63.224c0-5.43-4.396-9.826-9.826-9.826h-36.267c-5.43,0-9.826,4.396-9.826,9.826v19.846 c-1.293,0.517-2.651,1.099-3.943,1.616L150.4,70.723c-3.879-3.879-10.02-3.879-13.899,0l-25.665,25.665 c-3.62,3.426-4.008,9.762,0,13.899l13.964,13.964c-0.517,1.293-1.099,2.651-1.616,3.943h-19.846c-5.43,0-9.826,4.396-9.826,9.826 v36.267c0,5.43,4.396,9.826,9.826,9.826h19.846c0.517,1.293,1.099,2.651,1.616,3.943l-13.964,13.964 c-4.073,3.814-3.814,9.891,0,13.899l25.665,25.665c3.685,3.879,10.02,3.879,13.899,0l13.964-13.964 c1.293,0.517,2.65,1.099,3.943,1.616v19.846c0,5.43,4.396,9.826,9.826,9.826H214.4c5.43,0,9.826-4.396,9.826-9.826v-19.846 c1.293-0.517,2.651-1.099,3.943-1.616l13.964,13.964c3.685,3.685,10.214,3.685,13.899,0l25.665-25.665 c3.685-3.879,3.879-9.826,0-13.899l-13.964-13.964c0.517-1.293,1.099-2.651,1.616-3.943h19.846c5.43,0,9.826-4.396,9.826-9.826 V138.02C299.022,132.525,294.562,128.129,289.196,128.129z M279.37,164.461h-17.131c-4.396,0-8.339,2.909-9.503,7.176 c-1.293,4.719-3.168,9.244-5.56,13.446c-2.133,3.879-1.552,8.663,1.616,11.83l12.154,12.154l-11.766,11.766l-12.024-12.154 c-3.103-3.168-7.952-3.814-11.83-1.616c-4.202,2.392-8.663,4.267-13.446,5.56c-4.267,1.164-7.24,5.042-7.24,9.503v17.131h-16.614 v-17.131c0-4.396-2.909-8.275-7.24-9.503c-4.719-1.293-9.244-3.168-13.446-5.56c-3.879-2.133-8.663-1.551-11.83,1.616 l-12.218,12.089l-11.766-11.766l12.154-12.154c3.168-3.103,3.814-7.952,1.616-11.83c-2.392-4.202-4.267-8.663-5.56-13.446 c-1.164-4.267-5.042-7.176-9.503-7.176h-17.131v-16.614h17.131c4.396,0,8.275-2.909,9.503-7.176 c1.293-4.719,3.168-9.244,5.56-13.446c2.133-3.879,1.552-8.663-1.616-11.83l-12.154-12.154l11.766-11.766l12.154,12.024 c3.103,3.103,7.952,3.814,11.83,1.616c4.202-2.392,8.663-4.267,13.446-5.56c4.267-1.164,7.24-5.042,7.24-9.503V72.921h16.614 v17.131c0,4.396,2.909,8.275,7.24,9.503c4.719,1.293,9.244,3.168,13.446,5.56c3.879,2.133,8.663,1.552,11.83-1.616l12.154-12.024 l11.766,11.766l-12.154,11.96c-3.168,3.168-3.814,7.952-1.552,11.83c2.392,4.202,4.267,8.663,5.56,13.446 c1.164,4.267,5.042,7.176,9.503,7.176h17.131v16.679h-0.129V164.461z"></path> <path style="fill:#194F82;" d="M196.299,121.018c-19.394,0-35.103,15.774-35.103,35.103s15.774,35.103,35.103,35.103 s35.103-15.774,35.103-35.103S215.693,121.018,196.299,121.018z M196.299,171.572c-8.469,0-15.451-6.982-15.451-15.451 c0-8.469,6.982-15.451,15.451-15.451c8.469,0,15.451,6.982,15.451,15.451C211.75,164.59,204.768,171.572,196.299,171.572z"></path> </g> </g></svg>
