<svg viewBox="0 0 24 24" fill="none" xmlns="http://www.w3.org/2000/svg">
    <path fill="#E10098"
          d="M14.234 12.464c.175.12.283.32.283.536 0 .216-.108.416-.283.536l-1.98 1.36c-.175.12-.39.12-.565 0L9.71 13.536c-.175-.12-.283-.32-.283-.536 0-.216.108-.416.283-.536l1.98-1.36c.175-.12.39-.12.565 0l1.98 1.36zm5.09-7.124c.175.12.283.32.283.536v2.72c0 .216-.108.416-.283.536l-1.98 1.36c-.175.12-.39.12-.565 0L15.8 8.132c-.175-.12-.283-.32-.283-.536v-2.72c0-.216.108-.416.283-.536l1.98-1.36c.175-.12.39-.12.565 0l1.98 1.36zM9.09 5.34c.175.12.283.32.283.536v2.72c0 .216-.108.416-.283.536L7.11 10.492c-.175.12-.39.12-.565 0L4.566 9.132c-.175-.12-.283-.32-.283-.536v-2.72c0-.216.108-.416.283-.536l1.98-1.36c.175-.12.39-.12.565 0L9.09 5.34zm10.18 9.784c.175.12.283.32.283.536v2.72c0 .216-.108.416-.283.536l-1.98 1.36c-.175.12-.39.12-.565 0l-1.98-1.36c-.175-.12-.283-.32-.283-.536v-2.72c0-.216.108-.416.283-.536l1.98-1.36c.175-.12.39-.12.565 0l1.98 1.36zm-10.18 0c.175.12.283.32.283.536v2.72c0 .216-.108.416-.283.536l-1.98 1.36c-.175.12-.39.12-.565 0L4.566 17.916c-.175-.12-.283-.32-.283-.536v-2.72c0-.216.108-.416.283-.536l1.98-1.36c.175-.12.39-.12.565 0l1.98 1.36z" />
    </svg>
